<svg width="1140" height="164" viewBox="0 0 1140 164" fill="none" xmlns="http://www.w3.org/2000/svg">
<path d="M63.9404 163.806C26.0376 163.806 0.549316 145.02 0 111.182H35.376C36.0352 126.343 46.8018 136.34 64.4897 136.34C78.6621 136.34 88.4399 129.419 88.4399 117.224C88.4399 107.666 83.1665 102.612 69.2139 99.5361L47.3511 94.7021C16.8091 88.0005 2.63672 74.3774 2.63672 48.6694C2.63672 20.4346 26.3672 0 62.5122 0C98.9868 0 119.751 20.6543 121.069 47.5708H86.0229C85.5835 35.8154 77.3438 27.0264 61.5234 27.0264C48.1201 27.0264 37.9028 34.3872 37.9028 45.7031C37.9028 54.4922 43.7256 59.9854 58.4473 63.1714L81.7383 68.2251C105.688 73.3887 123.596 85.5835 123.596 112.83C123.596 144.8 100.854 163.806 63.9404 163.806ZM50.8667 81.0791C50.8667 88.2202 56.5796 93.9331 63.6108 93.9331C70.752 93.9331 76.355 88.2202 76.355 81.0791C76.355 73.938 70.6421 68.2251 63.6108 68.2251C56.5796 68.2251 50.8667 73.8281 50.8667 81.0791ZM192.81 162.598C169.958 162.598 154.578 153.04 154.578 127.112V69.873H135.242V44.7144H137.878C152.271 44.7144 158.972 38.8916 159.851 21.3135L160.4 9.99756H187.866V35.376C187.866 38.7817 186.218 40.4297 182.812 40.4297H176.55C169.739 40.4297 164.575 45.4834 164.575 51.9653C164.575 58.7769 169.739 63.9404 176.55 63.9404C182.922 63.9404 188.086 58.7769 188.086 51.9653V49.4385C188.086 46.4722 189.844 44.7144 193.03 44.7144H212.915V69.873H187.866V122.827C187.866 133.044 193.469 136.34 201.929 136.34C205.115 136.34 208.191 136.011 211.047 135.352V160.181C206.323 161.609 199.841 162.598 192.81 162.598ZM269.714 163.806C245.874 163.806 232.251 148.535 232.251 124.365V44.7144H265.54V120.52C265.54 131.506 271.143 138.318 282.239 138.318C295.203 138.318 302.673 128.101 302.673 110.413V44.7144H335.962V160.62H306.299V150.073C306.299 147.217 307.947 145.569 310.693 145.569H317.065C323.987 145.569 329.37 140.515 329.37 133.813C329.37 127.112 324.536 122.058 317.725 122.058C311.243 122.058 307.288 126.233 305.64 133.813C301.135 152.49 290.259 163.806 269.714 163.806ZM438.574 3.07617H470.984V160.62H438.025V143.591C431.653 156.665 419.678 163.806 404.077 163.806C375.403 163.806 357.605 140.735 357.605 102.832C357.605 64.8193 375.732 41.5283 404.846 41.5283C414.734 41.5283 422.314 44.6045 427.917 50.7568C432.312 55.481 435.608 61.9629 437.915 70.2026C439.673 76.9043 443.188 82.0679 450.11 82.0679C456.592 82.0679 461.646 77.0142 461.646 70.4224C461.646 63.9404 456.702 58.9966 449.78 58.9966H442.969C440.332 58.9966 438.574 57.2388 438.574 54.0527V3.07617ZM391.882 102.502C391.882 124.036 399.573 138.428 414.734 138.428C429.785 138.428 437.805 124.036 437.805 102.502C437.805 81.0791 429.785 66.7969 414.734 66.7969C399.573 66.7969 391.882 81.0791 391.882 102.502ZM497.791 160.62V44.7144H531.079V160.62H497.791ZM497.021 30.6519V1.42822H531.958V30.6519H497.021ZM609.741 163.806C575.024 163.806 552.283 140.186 552.283 102.612C552.283 65.0391 575.024 41.5283 609.741 41.5283C644.348 41.5283 667.09 65.0391 667.09 102.612C667.09 140.186 644.348 163.806 609.741 163.806ZM558.105 102.722C558.105 109.204 563.269 114.368 569.751 114.368C576.123 114.368 581.506 109.204 581.506 102.722C581.506 96.2402 576.123 90.9668 569.751 90.9668C563.269 90.9668 558.105 96.2402 558.105 102.722ZM586.56 102.612C586.56 126.233 595.349 138.318 609.741 138.318C624.133 138.318 632.812 126.343 632.812 102.612C632.812 78.8818 624.133 67.0166 609.741 67.0166C595.349 67.0166 586.56 78.9917 586.56 102.612ZM637.976 102.722C637.976 109.204 643.14 114.368 649.622 114.368C656.104 114.368 661.267 109.204 661.267 102.722C661.267 96.2402 656.104 90.9668 649.622 90.9668C643.14 90.9668 637.976 96.2402 637.976 102.722ZM765.088 160.62V102.502L714.221 3.07617H753.223L777.722 55.9204C779.15 58.9966 778.931 61.9629 776.624 64.27L773.328 67.5659C770.691 70.0928 769.482 73.3887 769.482 76.9043C769.482 84.2651 775.305 90.0879 782.666 90.0879C789.917 90.0879 795.85 84.0454 795.85 76.5747C795.85 73.1689 794.531 69.9829 791.895 67.4561L788.599 64.27C786.182 61.853 786.182 58.9966 787.61 55.8105L812.329 3.07617H849.573L799.475 102.722V160.62H765.088ZM886.707 163.806C862.866 163.806 849.243 148.535 849.243 124.365V44.7144H882.532V120.52C882.532 131.506 888.135 138.318 899.231 138.318C912.195 138.318 919.666 128.101 919.666 110.413V44.7144H952.954V160.62H923.291V150.073C923.291 147.217 924.939 145.569 927.686 145.569H934.058C940.979 145.569 946.362 140.515 946.362 133.813C946.362 127.112 941.528 122.058 934.717 122.058C928.235 122.058 924.28 126.233 922.632 133.813C918.127 152.49 907.251 163.806 886.707 163.806ZM979.871 160.62V3.07617H1013.16V74.2676C1013.16 76.7944 1011.29 78.772 1008.76 78.772H1004.92C997.449 78.772 992.065 84.375 992.065 91.1865C992.065 98.1079 997.449 103.162 1004.26 103.162C1010.52 103.162 1015.91 97.8882 1015.91 90.9668V86.792C1015.91 83.0566 1017.44 80.5298 1020.41 77.2339L1049.3 44.7144H1089.84L1047.44 90.1978L1093.14 160.62H1054.03L1025.57 113.708L1013.16 127.002V160.62H979.871ZM1105.11 160.62V44.7144H1138.4V160.62H1105.11ZM1104.35 30.6519V1.42822H1139.28V30.6519H1104.35Z" fill="black"/>
</svg>
