<svg width="128" height="19" viewBox="0 0 128 19" fill="none" xmlns="http://www.w3.org/2000/svg">
<path d="M7.99561 18.354C3.78418 18.354 0.952148 16.2666 0.891113 12.5068H4.82178C4.89502 14.1914 6.09131 15.3022 8.05664 15.3022C9.63135 15.3022 10.7178 14.5332 10.7178 13.1782C10.7178 12.1162 10.1318 11.5547 8.58154 11.2129L6.15234 10.6758C2.75879 9.93115 1.18408 8.41748 1.18408 5.56104C1.18408 2.42383 3.8208 0.15332 7.83691 0.15332C11.8896 0.15332 14.1968 2.44824 14.3433 5.43896H10.4492C10.4004 4.13281 9.48486 3.15625 7.72705 3.15625C6.23779 3.15625 5.10254 3.97412 5.10254 5.23145C5.10254 6.20801 5.74951 6.81836 7.38525 7.17236L9.97314 7.73389C12.6343 8.30762 14.624 9.6626 14.624 12.6899C14.624 16.2422 12.0972 18.354 7.99561 18.354ZM6.54297 9.16211C6.54297 9.95557 7.17773 10.5903 7.95898 10.5903C8.75244 10.5903 9.375 9.95557 9.375 9.16211C9.375 8.36865 8.74023 7.73389 7.95898 7.73389C7.17773 7.73389 6.54297 8.35645 6.54297 9.16211Z" fill="black"/>
<path d="M22.3145 18.2197C19.7754 18.2197 18.0664 17.1577 18.0664 14.2769V7.91699H15.918V5.12158H16.2109C17.8101 5.12158 18.5547 4.47461 18.6523 2.52148L18.7134 1.26416H21.7651V4.08398C21.7651 4.4624 21.582 4.64551 21.2036 4.64551H20.5078C19.751 4.64551 19.1772 5.20703 19.1772 5.92725C19.1772 6.68408 19.751 7.25781 20.5078 7.25781C21.2158 7.25781 21.7896 6.68408 21.7896 5.92725V5.64648C21.7896 5.31689 21.9849 5.12158 22.3389 5.12158H24.5483V7.91699H21.7651V13.8008C21.7651 14.936 22.3877 15.3022 23.3276 15.3022C23.6816 15.3022 24.0234 15.2656 24.3408 15.1924V17.9512C23.8159 18.1099 23.0957 18.2197 22.3145 18.2197Z" fill="black"/>
<path d="M30.8594 18.354C28.2104 18.354 26.6968 16.6572 26.6968 13.9717V5.12158H30.3955V13.5444C30.3955 14.7651 31.0181 15.522 32.251 15.522C33.6914 15.522 34.5215 14.3867 34.5215 12.4214V5.12158H38.2202V18H34.9243V16.8281C34.9243 16.5107 35.1074 16.3276 35.4126 16.3276H36.1206C36.8896 16.3276 37.4878 15.7661 37.4878 15.0215C37.4878 14.2769 36.9507 13.7153 36.1938 13.7153C35.4736 13.7153 35.0342 14.1792 34.8511 15.0215C34.3506 17.0967 33.1421 18.354 30.8594 18.354Z" fill="black"/>
<path d="M49.6216 0.495117H53.2227V18H49.5605V16.1079C48.8525 17.5605 47.522 18.354 45.7886 18.354C42.6025 18.354 40.625 15.7905 40.625 11.5791C40.625 7.35547 42.6392 4.76758 45.874 4.76758C46.9727 4.76758 47.8149 5.10938 48.4375 5.79297C48.9258 6.31787 49.292 7.03809 49.5483 7.95361C49.7437 8.69824 50.1343 9.27197 50.9033 9.27197C51.6235 9.27197 52.1851 8.71045 52.1851 7.97803C52.1851 7.25781 51.6357 6.7085 50.8667 6.7085H50.1099C49.8169 6.7085 49.6216 6.51318 49.6216 6.15918V0.495117ZM44.4336 11.5425C44.4336 13.9351 45.2881 15.5342 46.9727 15.5342C48.645 15.5342 49.5361 13.9351 49.5361 11.5425C49.5361 9.16211 48.645 7.5752 46.9727 7.5752C45.2881 7.5752 44.4336 9.16211 44.4336 11.5425Z" fill="black"/>
<path d="M56.2012 18V5.12158H59.8999V18H56.2012ZM56.1157 3.55908V0.312012H59.9976V3.55908H56.1157Z" fill="black"/>
<path d="M68.6401 18.354C64.7827 18.354 62.2559 15.7295 62.2559 11.5547C62.2559 7.37988 64.7827 4.76758 68.6401 4.76758C72.4854 4.76758 75.0122 7.37988 75.0122 11.5547C75.0122 15.7295 72.4854 18.354 68.6401 18.354ZM62.9028 11.5669C62.9028 12.2871 63.4766 12.8608 64.1968 12.8608C64.9048 12.8608 65.5029 12.2871 65.5029 11.5669C65.5029 10.8467 64.9048 10.2607 64.1968 10.2607C63.4766 10.2607 62.9028 10.8467 62.9028 11.5669ZM66.0645 11.5547C66.0645 14.1792 67.041 15.522 68.6401 15.522C70.2393 15.522 71.2036 14.1914 71.2036 11.5547C71.2036 8.91797 70.2393 7.59961 68.6401 7.59961C67.041 7.59961 66.0645 8.93018 66.0645 11.5547ZM71.7773 11.5669C71.7773 12.2871 72.3511 12.8608 73.0713 12.8608C73.7915 12.8608 74.3652 12.2871 74.3652 11.5669C74.3652 10.8467 73.7915 10.2607 73.0713 10.2607C72.3511 10.2607 71.7773 10.8467 71.7773 11.5669Z" fill="black"/>
<path d="M85.9009 18V11.5425L80.249 0.495117H84.5825L87.3047 6.3667C87.4634 6.7085 87.439 7.03809 87.1826 7.29443L86.8164 7.66064C86.5234 7.94141 86.3892 8.30762 86.3892 8.69824C86.3892 9.51611 87.0361 10.1631 87.854 10.1631C88.6597 10.1631 89.3188 9.4917 89.3188 8.66162C89.3188 8.2832 89.1724 7.9292 88.8794 7.64844L88.5132 7.29443C88.2446 7.02588 88.2446 6.7085 88.4033 6.35449L91.1499 0.495117H95.2881L89.7217 11.5669V18H85.9009Z" fill="black"/>
<path d="M99.4141 18.354C96.7651 18.354 95.2515 16.6572 95.2515 13.9717V5.12158H98.9502V13.5444C98.9502 14.7651 99.5728 15.522 100.806 15.522C102.246 15.522 103.076 14.3867 103.076 12.4214V5.12158H106.775V18H103.479V16.8281C103.479 16.5107 103.662 16.3276 103.967 16.3276H104.675C105.444 16.3276 106.042 15.7661 106.042 15.0215C106.042 14.2769 105.505 13.7153 104.749 13.7153C104.028 13.7153 103.589 14.1792 103.406 15.0215C102.905 17.0967 101.697 18.354 99.4141 18.354Z" fill="black"/>
<path d="M109.766 18V0.495117H113.464V8.40527C113.464 8.68604 113.257 8.90576 112.976 8.90576H112.549C111.719 8.90576 111.121 9.52832 111.121 10.2852C111.121 11.0542 111.719 11.6157 112.476 11.6157C113.171 11.6157 113.77 11.0298 113.77 10.2607V9.79688C113.77 9.38184 113.94 9.10107 114.27 8.73486L117.48 5.12158H121.985L117.273 10.1753L122.351 18H118.005L114.844 12.7876L113.464 14.2646V18H109.766Z" fill="black"/>
<path d="M123.682 18V5.12158H127.38V18H123.682ZM123.596 3.55908V0.312012H127.478V3.55908H123.596Z" fill="black"/>
</svg>
